<svg style="position: absolute; width: 0; height: 0; overflow: hidden;" aria-hidden="true" version="1.1" xmlns="http://www.w3.org/2000/svg" xmlns:xlink="http://www.w3.org/1999/xlink">
    <style>
        .default-palette, .palette0 {color: currentColor;
            --color0: #4dc274;
            --color1: #fff;
        }
    </style>
    <defs>
        <symbol id="youtube" viewBox="0 0 28 28">
            <path clip-rule="evenodd" d="M21.21 5.2499c-1.19-0.07-3.64-0.14-7.35-0.14l-0.49 0c-3.57 0-5.9499 0.07-7.1399 0.21-1.61 0.14-2.7301 0.56-3.3601 1.12-0.56 0.49-0.9799 1.4-1.1199 2.59-0.07 0.77-0.14 2.38-0.14 4.83l0 0.35c0 2.31 0.0699 3.92 0.2099 4.69 0.21 1.12 0.5601 1.96 1.2601 2.45 0.7 0.56 1.89 0.91 3.57 1.05 1.19 0.07 3.64 0.14 7.35 0.14h0.49c3.57 0 5.95-0.07 7.14-0.21 1.61-0.14 2.73-0.56 3.36-1.12 0.56-0.49 0.9799-1.4 1.1199-2.59 0.07-0.77 0.1401-2.38 0.1401-4.83v-0.35c0-2.31-0.07-3.92-0.21-4.69-0.21-1.12-0.56-1.96-1.26-2.45-0.7-0.56-1.8901-0.91-3.5701-1.05zM18.4801 13.8599l-7.7 4.62v-9.24z" fill-rule="evenodd" />
        </symbol>
        <symbol id="radiobtn" viewBox="0 0 20 20">
            <rect stroke-width="2" width="18" height="18" rx="9" x="1" y="1" />
            <rect width="10" height="10" rx="5" x="5" y="5" />
        </symbol>
        <symbol id="instagram" viewBox="0 0 28 28">
            
                <path d="M25.1278 9.4115c-0.0136-0.9401-0.1878-1.8727-0.5211-2.7519-0.5834-1.5014-1.7713-2.6886-3.2752-3.2697-0.8695-0.3266-1.7887-0.5017-2.7192-0.5216C17.4157 2.8149 17.0363 2.8 13.9987 2.8c-3.0375 0-3.4269 0-4.6148 0.0683-0.9292 0.0199-1.8484 0.195-2.7179 0.5216C5.1621 3.971 3.973 5.1582 3.3908 6.6596 3.0637 7.5276 2.8871 8.4453 2.8697 9.373 2.8162 10.5688 2.8 10.9476 2.8 13.9801c0 3.0326 0 3.42 0.0696 4.6072 0.0187 0.9289 0.1941 1.8453 0.5212 2.7159 0.5834 1.5001 1.7713 2.6873 3.2765 3.2684 0.8657 0.3378 1.7849 0.5291 2.7178 0.5589C10.583 25.1839 10.9624 25.2 14 25.2s3.4269 0 4.6148-0.0695c0.9292-0.0187 1.8484-0.1938 2.7192-0.5204 1.5038-0.5824 2.6918-1.7696 3.2751-3.2697 0.3272-0.8693 0.5026-1.7857 0.5212-2.7158 0.0535-1.1947 0.0697-1.5734 0.0697-4.6072-25e-4-3.0325-25e-4-3.4175-0.0722-4.6059zM13.9913 19.7149c-3.1769 0-5.7505-2.5694-5.7505-5.741 0-3.1716 2.5736-5.7409 5.7505-5.7409 3.1744 0 5.7505 2.5693 5.7505 5.7409s-2.5761 5.741-5.7505 5.741zM19.9707 9.3593c-0.7426 0-1.3409-0.5986-1.3409-1.3387 0-0.7401 0.5983-1.3387 1.3409-1.3387 0.7401 0 1.3396 0.5986 1.3396 1.3387 0 0.7401-0.5995 1.3387-1.3396 1.3387z" />
                <path d="M13.9931 17.479c1.9349 0 3.5035-1.5686 3.5035-3.5035 0-1.935-1.5686-3.5035-3.5035-3.5035-1.935 0-3.5035 1.5685-3.5035 3.5035 0 1.9349 1.5685 3.5035 3.5035 3.5035z" />
            
        </symbol>
        <symbol id="facebook" viewBox="0 0 28 28">
            <path d="M17.08 4.0601c0.21 0 0.42 0 0.84 0v3.15c-0.21 0-0.63 0-1.05 0-0.42 0-0.84 0-1.05 0.21-0.21 0.21-0.21 0.42-0.21 0.91 0 0.42 0 0.7 0 1.12l2.31 0v2.66h-2.31v11.55h-3.57v-11.62h-1.89v-2.66l1.89 0v-0.91c0-1.54 0.21-2.66 0.63-3.15 0.63-0.91 1.89-1.33 3.78-1.33 0.21 0.07 0.42 0.07 0.63 0.07z" />
        </symbol>
        
        <symbol id="close-small" viewBox="0 0 32 32" stroke-width="3" stroke-linecap="round" stroke-linejoin="round">
            <path  d="M24 8l-16 16"/>
            <path  d="M8 8l16 16"/>
        </symbol>

        <symbol id="close-big" viewBox="0 0 40 40" stroke-width="3" stroke-linecap="round" stroke-linejoin="round">
            <path d="M30 10 10 30" />
            <path d="M10 10 30 30" />
        </symbol>



        <symbol id="check" viewBox="0 0 20 20">
            <path stroke-width="2" stroke-linecap="round" 
            stroke-linejoin="round" d="M16.6667 5 7.5 14.1667 3.3333 10" />
        </symbol>
        <symbol id="check-1" viewBox="0 0 32 32">
            <path d="M32 16c0 8.837-7.163 16-16 16s-16-7.163-16-16c0-8.837 7.163-16 16-16s16 7.163 16 16z"></path>
            <path stroke-linejoin="round" stroke-linecap="round" stroke-miterlimit="4" stroke-width="2.4" d="M22.4 11.2l-8.8 9.6-4-4.364"></path>
        </symbol>
        <symbol id="burger-small" viewBox="0 0 32 32" stroke-width="3" stroke-linecap="round">
            <line x1="6.36963" x2="30.5001" y1="8.37878" y2="8.37878" />
            <line x1="6.36963" x2="30.5001" y1="22.3182" y2="22.3182" />
            <line x1="14.0217" x2="30.5" y1="15.3485" y2="15.3485" />
        </symbol>
        <symbol id="burger-big" viewBox="0 0 40 28" stroke-width="3" stroke-linecap="round">
            <line x1="7.58698" x2="38.5" y1="4.43939" y2="4.43939" />
            <line x1="7.58698" x2="38.5" y1="21.4091" y2="21.4091" />
            <line x1="17.1522" x2="38.5" y1="12.9242" y2="12.9242" />
        </symbol>
        <symbol id="arrow" viewBox="0 0 24 24">
            <path fill="currentColor" d="M12.71 13.4001c-0.0929 0.0937-0.2035 0.1681-0.3254 0.2189S12.132 13.6959 12 13.6959s-0.2627-0.0261-0.3846-0.0769c-0.1218-0.0508-0.2324-0.1252-0.3254-0.2189l-4.58-4.59C6.6171 8.7164 6.5065 8.642 6.3846 8.5912 6.2627 8.5405 6.132 8.5143 6 8.5143c-0.132 0-0.2627 0.0261-0.3846 0.0769C5.4936 8.642 5.383 8.7164 5.29 8.8101 5.1038 8.9975 4.9992 9.2509 4.9992 9.5151c0 0.2642 0.1046 0.5176 0.2908 0.705l4.59 4.59c0.5625 0.5618 1.325 0.8774 2.12 0.8774s1.5575-0.3156 2.12-0.8774l4.59-4.59c0.1848-0.1863 0.2889-0.4376 0.29-0.7 8e-4-0.1316-0.0244-0.2621-0.0742-0.3839S18.8027 8.9035 18.71 8.8101c-0.0929-0.0937-0.2035-0.1681-0.3254-0.2189C18.2628 8.5405 18.132 8.5143 18 8.5143c-0.132 0-0.2627 0.0261-0.3845 0.0769C17.4936 8.642 17.383 8.7164 17.29 8.8101z" />
        </symbol>
    </defs>
</svg>
